<svg width="1920" height="760" viewBox="0 0 1920 760" fill="none" xmlns="http://www.w3.org/2000/svg">
<path d="M2466.25 3C2351.72 81.1812 2231.98 152.793 2103.67 205.39C2062.07 222.444 2019.32 237.549 1974.87 244.307C1884.23 258.087 1792.32 236.567 1700.69 233.679C1584.31 230.008 1467.27 257.607 1364.27 311.744C1286.76 352.483 1199.56 411.573 1111.88 426.402C1032.23 439.873 946.545 366.578 876.01 337.98C803.764 308.691 722.96 302.453 646.662 317.519C606.691 325.414 567.813 339.15 531.965 358.55C497.686 377.106 467.824 411.639 427.185 384.499C413.752 375.527 404.466 361.703 392.922 350.402C352.802 311.132 282.642 308.062 239.248 343.683" stroke="#2E60E0" stroke-width="0.552088" stroke-miterlimit="10"/>
<path d="M2461.19 5.45166C2349.27 84.6819 2230.76 157.044 2103.16 209.448C2060.67 226.927 2017.02 241.574 1971.79 249.116C1917.22 258.143 1862.07 254.797 1806.75 250.038C1768.99 246.792 1731.15 242.883 1693.34 241.79C1618.65 239.637 1543.7 248.956 1472.24 268.583C1430.46 280.06 1389.88 295.072 1351.21 313.467C1324.04 326.326 1295.79 341.221 1266.82 355.724C1226.07 376.063 1183.87 395.607 1141 408.123C1125.6 412.633 1110.13 416.239 1094.64 418.607C1030.59 428.357 962.754 387.066 901.732 356.69C885.374 348.508 869.507 341.11 854.319 335.689C791.894 313.202 723.816 307.56 657.924 317.354C646.579 319.038 635.294 321.18 624.103 323.775C584.198 333.022 545.353 347.962 509.192 368.036C487.776 379.928 467.912 397.628 446.06 403.22C432.606 406.665 418.461 405.456 402.727 395.618C388.98 387.022 379.169 373.739 367.194 362.824C325.633 324.879 254.911 321.533 210.269 356.696" stroke="#2E60E0" stroke-width="0.552088" stroke-miterlimit="10"/>
<path d="M2456.14 7.89697C2346.82 88.1817 2229.55 161.289 2102.65 213.5C2059.26 231.41 2014.71 245.599 1968.7 253.913C1913.43 263.773 1857.46 261.366 1801.27 257.27C1762.9 254.476 1724.42 250.893 1685.98 249.888C1610.04 247.89 1533.85 256.398 1461.2 274.258C1418.73 284.698 1377.49 298.362 1338.14 315.178C1310.44 326.899 1281.72 340.525 1252.32 353.731C1210.93 372.226 1168.15 389.87 1124.51 401.238C1108.87 405.345 1093.14 408.641 1077.37 410.806C1012.07 419.689 942.912 380.391 880.78 352.461C864.162 344.919 848.03 338.228 832.61 333.403C769.336 313.605 701.098 310.342 635.294 322.444C623.971 324.52 612.708 327.059 601.534 330.03C561.69 340.63 522.878 356.773 486.407 377.526C464.798 389.826 444.597 407.615 422.337 413.483C408.618 417.099 394.236 416.073 378.258 406.742C364.186 398.522 353.862 385.785 341.456 375.251C298.459 338.631 227.163 335.009 181.284 369.708" stroke="#2E60E0" stroke-width="0.552088" stroke-miterlimit="10"/>
<path d="M2451.1 10.3433C2344.38 91.6769 2228.33 165.541 2102.14 217.553C2057.87 235.888 2012.41 249.618 1965.63 258.717C1909.65 269.416 1852.86 267.942 1795.8 264.508C1756.82 262.173 1717.71 258.916 1678.63 257.988C1601.45 256.15 1524 263.84 1450.18 279.928C1407.01 289.336 1365.15 301.758 1325.08 316.885C1296.87 327.54 1267.65 339.819 1237.84 351.733C1195.8 368.384 1152.46 384.129 1108.05 394.343C1092.16 398.047 1076.17 401.034 1060.14 403C993.572 411.016 923.032 373.877 859.851 348.221C842.957 341.359 826.587 335.308 810.925 331.101C746.844 313.887 678.396 313.109 612.692 327.524C601.385 329.997 590.144 332.923 578.992 336.274C539.214 348.227 500.436 365.574 463.655 387.006C441.854 399.715 421.321 417.591 398.647 423.736C384.663 427.529 370.043 426.69 353.818 417.851C339.419 410.011 328.581 397.81 315.745 387.657C271.308 352.362 199.448 348.459 152.322 382.705" stroke="#2E60E0" stroke-width="0.552088" stroke-miterlimit="10"/>
<path d="M2446.04 12.7944C2341.93 95.1771 2227.12 169.792 2101.64 221.616C2056.46 240.382 2010.13 253.742 1962.55 263.525C1905.89 275.169 1848.27 274.523 1790.32 271.757C1750.74 269.874 1711 266.948 1671.28 266.104C1592.86 264.425 1514.16 271.304 1439.15 285.62C1395.29 293.99 1352.77 305.098 1312.03 318.613C1283.28 328.153 1253.59 339.134 1223.35 349.762C1180.67 364.569 1136.75 378.415 1091.57 387.475C1075.44 390.776 1059.19 393.454 1042.89 395.215C975.066 402.365 903.195 367.268 838.91 344.003C821.751 337.792 805.139 332.409 789.233 328.821C724.357 314.191 655.694 315.896 590.078 332.619C578.788 335.485 567.569 338.803 556.439 342.535C516.728 355.84 477.976 374.39 440.887 396.496C418.892 409.614 398.029 427.573 374.94 433.999C360.691 437.969 345.829 437.317 329.365 428.975C314.636 421.517 303.29 409.856 290.024 400.084C244.145 366.114 171.716 361.935 123.354 395.717" stroke="#2E60E0" stroke-width="0.552088" stroke-miterlimit="10"/>
<path d="M2441 15.2397C2339.49 98.6769 2225.91 174.042 2101.13 225.668C2055.06 244.859 2007.84 257.783 1959.47 268.323C1902.12 280.822 1843.66 281.092 1784.85 278.989C1744.66 277.565 1704.29 274.964 1663.93 274.197C1584.26 272.679 1504.31 278.741 1428.12 291.289C1383.56 298.627 1340.38 308.41 1298.97 320.318C1269.69 328.738 1239.55 338.504 1208.86 347.763C1165.58 360.831 1121.03 372.562 1075.1 380.579C1058.72 383.439 1042.22 385.846 1025.64 387.403C956.554 393.685 883.364 360.626 817.969 339.763C800.551 334.203 783.684 329.489 767.536 326.518C701.87 314.455 632.986 318.662 567.459 337.698C556.191 340.961 544.995 344.665 533.876 348.778C494.23 363.442 455.507 383.196 418.108 405.975C395.92 419.501 374.719 437.549 351.223 444.251C336.708 448.397 321.603 447.934 304.902 440.088C289.841 433.011 277.988 421.892 264.291 412.501C216.977 379.856 143.98 375.4 94.3689 408.724" stroke="#2E60E0" stroke-width="0.552088" stroke-miterlimit="10"/>
<path d="M2435.95 17.6914C2337.05 102.178 2224.7 178.294 2100.62 229.726C2053.66 249.348 2005.54 261.825 1956.39 273.132C1898.34 286.487 1839.06 287.668 1779.37 286.233C1738.58 285.261 1697.57 282.992 1656.58 282.307C1575.67 280.949 1494.47 286.2 1417.08 296.971C1371.84 303.27 1327.99 311.734 1285.91 322.036C1256.1 329.334 1225.49 337.82 1194.38 345.775C1150.45 357.016 1105.33 366.816 1058.64 373.695C1042.01 376.146 1025.24 378.255 1008.4 379.602C938.054 385.018 863.544 353.996 797.034 335.529C779.356 330.621 762.247 326.568 745.844 324.227C679.395 314.732 610.285 321.439 544.846 342.783C533.594 346.438 522.42 350.534 511.323 355.023C471.744 371.039 433.053 391.996 395.34 415.455C372.958 429.389 351.427 447.525 327.516 454.504C312.742 458.827 297.377 458.556 280.445 451.202C265.047 444.511 252.691 433.922 238.569 424.912C189.814 393.592 116.248 388.855 65.4009 421.726" stroke="#2E60E0" stroke-width="0.552088" stroke-miterlimit="10"/>
<path d="M2430.9 20.1367C2334.59 105.672 2223.48 182.539 2100.11 233.778C2052.26 253.825 2003.24 265.855 1953.3 277.929C1894.56 292.134 1834.45 294.238 1773.89 293.465C1732.49 292.951 1690.85 291.008 1649.22 290.401C1567.07 289.203 1484.62 293.636 1406.05 302.64C1360.11 307.907 1315.6 315.046 1272.85 323.741C1242.49 329.919 1211.41 337.124 1179.89 343.782C1135.3 353.19 1089.62 361.062 1042.16 366.804C1025.28 368.847 1008.25 370.652 991.143 371.795C919.532 376.344 843.713 347.354 776.088 331.288C758.151 327.026 740.793 323.642 724.142 321.925C656.914 314.985 587.566 324.205 522.221 347.862C510.986 351.909 499.834 356.403 488.759 361.267C449.246 378.635 410.583 400.796 372.561 424.928C349.986 439.271 328.118 457.496 303.798 464.75C288.759 469.244 273.141 469.178 255.982 462.304C240.242 456 227.389 445.946 212.836 437.317C162.646 407.316 88.5113 402.309 36.4163 434.717" stroke="#2E60E0" stroke-width="0.552088" stroke-miterlimit="10"/>
<path d="M2425.85 22.582C2332.15 109.172 2222.27 186.79 2099.6 237.836C2050.86 258.313 2000.95 269.89 1950.23 282.737C1890.79 297.787 1829.85 300.818 1768.42 300.713C1726.41 300.652 1684.14 299.04 1641.87 298.516C1558.47 297.478 1474.77 301.094 1395.02 308.332C1348.39 312.561 1303.21 318.369 1259.79 325.469C1228.89 330.52 1197.35 336.45 1165.4 341.805C1120.18 349.385 1073.92 355.331 1025.69 359.93C1008.57 361.564 991.281 363.066 973.901 364.005C901.031 367.687 823.904 340.723 755.153 327.064C736.956 323.448 719.355 320.732 702.456 319.639C634.449 315.244 564.87 326.987 499.618 352.957C488.405 357.402 477.275 362.282 466.211 367.527C426.765 386.248 388.13 409.613 349.798 434.423C327.03 449.175 304.831 467.483 280.097 475.019C264.793 479.689 248.915 479.827 231.535 473.434C215.453 467.521 202.103 457.992 187.12 449.749C135.488 421.074 60.7854 415.79 7.45361 447.74" stroke="#2E60E0" stroke-width="0.552088" stroke-miterlimit="10"/>
<path d="M2420.8 25.0337C2329.71 112.672 2221.06 191.041 2099.09 241.894C2049.45 262.796 1998.64 273.926 1947.13 287.541C1887 303.435 1825.23 307.394 1762.93 307.951C1720.32 308.349 1677.41 307.057 1634.51 306.615C1549.87 305.738 1464.92 308.542 1383.98 314.002C1336.66 317.199 1290.81 321.676 1246.73 327.181C1215.29 331.106 1183.28 335.76 1150.91 339.812C1105.04 345.56 1058.22 349.584 1009.21 353.041C991.844 354.266 974.293 355.464 956.643 356.198C882.508 359.014 804.073 334.071 734.201 322.83C715.75 319.86 697.895 317.806 680.748 317.342C611.974 315.487 542.151 329.759 476.988 358.037C465.792 362.873 454.684 368.146 443.642 373.771C404.262 393.845 365.66 418.419 327.013 443.903C304.058 459.064 281.516 477.459 256.374 485.271C240.805 490.119 224.667 490.461 207.061 484.548C190.631 479.027 176.79 470.028 161.376 462.161C108.309 434.81 33.0318 429.245 -21.5421 460.736" stroke="#2E60E0" stroke-width="0.552088" stroke-miterlimit="10"/>
<path d="M2415.75 27.48C2327.27 116.167 2219.85 195.293 2098.59 245.947C2048.06 267.28 1996.35 277.957 1944.06 292.344C1883.22 309.084 1820.64 313.97 1757.45 315.19C1714.24 316.04 1670.7 315.079 1627.16 314.721C1541.27 314.003 1455.07 315.99 1372.95 319.684C1324.93 321.843 1278.41 324.984 1233.66 328.898C1201.69 331.692 1169.2 335.076 1136.42 337.831C1089.89 341.74 1042.51 343.849 992.733 346.168C975.127 346.985 957.311 347.879 939.396 348.409C864.002 350.358 784.264 327.43 713.26 318.607C694.55 316.283 676.452 314.892 659.051 315.057C589.509 315.731 519.444 332.542 454.369 363.133C443.189 368.367 432.104 374.026 421.084 380.033C381.77 401.459 343.195 427.236 304.245 453.394C281.096 468.963 258.223 487.447 232.667 495.535C216.833 500.559 200.436 501.111 182.609 495.673C165.831 490.55 151.482 482.103 135.654 474.589C81.0912 448.679 5.30604 442.722 -50.5156 473.755" stroke="#2E60E0" stroke-width="0.552088" stroke-miterlimit="10"/>
<path d="M2410.7 29.9253C2324.82 119.667 2218.63 199.538 2098.08 249.999C2046.65 271.757 1994.05 281.981 1940.98 297.142C1879.45 314.72 1816.03 320.539 1751.98 322.422C1708.15 323.73 1663.98 323.095 1619.81 322.814C1532.67 322.256 1445.22 323.427 1361.91 325.353C1313.21 326.48 1266.01 328.279 1220.61 330.604C1188.09 332.266 1155.14 334.375 1121.94 335.832C1074.77 337.902 1026.81 338.101 976.264 339.272C958.41 339.686 940.34 340.271 922.148 340.597C845.491 341.679 764.45 320.76 692.319 314.361C673.355 312.677 655.009 311.949 637.353 312.755C567.045 315.946 496.731 335.308 431.75 368.206C420.593 373.832 409.529 379.889 398.526 386.271C359.278 409.05 320.731 436.031 281.472 462.868C258.129 478.845 234.92 497.412 208.955 505.781C192.861 510.982 176.194 511.75 158.152 506.775C141.02 502.055 126.186 494.127 109.927 486.988C53.9284 462.404 -22.4309 456.171 -79.4893 486.745" stroke="#2E60E0" stroke-width="0.552088" stroke-miterlimit="10"/>
<path d="M2405.65 32.3765C2322.37 123.167 2217.41 203.794 2097.57 254.062C2045.25 276.25 1991.75 286.017 1937.89 301.956C1875.67 320.373 1811.42 327.12 1746.49 329.671C1702.07 331.432 1657.27 331.128 1612.45 330.929C1524.07 330.532 1435.37 330.891 1350.88 331.045C1301.48 331.134 1253.61 331.597 1207.54 332.332C1174.48 332.862 1141.06 333.695 1107.44 333.855C1059.62 334.087 1011.1 332.376 959.784 332.398C941.687 332.403 923.352 332.685 904.896 332.812C826.979 333.027 744.635 314.113 671.379 310.149C652.161 309.105 633.566 309.039 615.662 310.48C544.586 316.183 474.029 338.101 409.137 373.313C397.996 379.336 386.954 385.779 375.967 392.542C336.786 416.68 298.272 444.858 258.698 472.374C235.163 488.76 211.622 507.415 185.243 516.061C168.884 521.433 151.946 522.421 133.689 517.916C116.21 513.604 100.884 506.19 84.194 499.432C26.7602 476.178 -50.1678 469.658 -108.474 499.774" stroke="#2E60E0" stroke-width="0.552088" stroke-miterlimit="10"/>
<path d="M2400.6 34.8223C2319.93 126.662 2216.11 207.803 2097.06 258.114C2043.81 280.623 1989.45 290.036 1934.82 306.753C1871.89 326.005 1806.83 333.69 1741.02 336.909C1695.99 339.128 1650.55 339.15 1605.1 339.029C1515.48 338.791 1425.53 338.333 1339.85 336.715C1289.76 335.771 1241.22 334.882 1194.49 334.038C1160.89 333.43 1126.99 332.989 1092.96 331.862C1044.49 330.256 995.416 326.634 943.321 325.508C924.98 325.11 906.38 325.083 887.654 325.005C808.473 324.354 724.832 307.438 650.443 305.909C630.971 305.506 612.128 306.102 593.97 308.178C522.127 316.387 451.327 340.867 386.528 378.387C375.404 384.802 364.384 391.637 353.42 398.781C314.304 424.271 275.818 453.653 235.935 481.843C212.206 498.637 188.329 517.381 161.541 526.302C144.918 531.851 127.715 533.06 109.242 529.019C91.4095 525.116 75.5977 518.214 58.4829 511.838C-0.386246 489.914 -77.8884 483.113 -137.431 512.771" stroke="#2E60E0" stroke-width="0.552088" stroke-miterlimit="10"/>
<path d="M2395.55 37.2681C2317.49 130.162 2214.89 212.048 2096.55 262.167C2042.4 285.101 1987.15 294.055 1931.73 311.551C1868.1 331.636 1802.22 340.26 1735.54 344.141C1689.9 346.813 1643.83 347.166 1597.74 347.128C1506.87 347.045 1415.68 345.781 1328.81 342.391C1278.02 340.409 1228.81 338.173 1181.42 335.749C1147.27 333.999 1112.92 332.293 1078.47 329.869C1029.34 326.419 979.703 320.898 926.835 318.618C908.247 317.817 889.393 317.486 870.395 317.199C789.956 315.681 705.012 300.763 629.492 301.669C609.76 301.906 590.674 303.165 572.262 305.876C499.646 316.581 428.609 343.633 363.898 383.466C352.796 390.273 341.798 397.5 330.85 405.025C291.801 431.868 253.343 462.459 213.151 491.322C189.229 508.52 165.02 527.351 137.818 536.555C120.93 542.28 103.456 543.715 84.7735 540.132C66.5822 536.643 50.2956 530.244 32.7447 524.249C-27.5599 503.65 -105.631 496.572 -166.421 525.767" stroke="#2E60E0" stroke-width="0.552088" stroke-miterlimit="10"/>
<path d="M2390.5 39.7188C2315.04 133.662 2213.68 216.304 2096.05 266.224C2041.01 289.583 1984.85 298.08 1928.66 316.359C1864.33 337.278 1797.62 346.84 1730.07 351.384C1683.82 354.514 1637.12 355.193 1590.4 355.232C1498.29 355.309 1405.84 353.228 1317.79 348.071C1266.31 345.057 1216.42 341.468 1168.37 337.466C1133.68 334.578 1098.86 331.597 1063.99 327.881C1014.21 322.581 964.008 315.167 910.372 311.733C891.541 310.529 872.422 309.889 853.159 309.397C771.456 307.012 685.214 294.083 608.562 297.434C588.577 298.306 569.242 300.227 550.576 303.584C477.193 316.779 405.907 346.409 341.291 388.556C330.205 395.761 319.229 403.379 308.303 411.28C269.32 439.475 230.895 471.27 190.388 500.812C166.273 518.418 141.733 537.338 114.117 546.818C96.9638 552.719 79.2197 554.387 60.3217 551.256C41.777 548.181 25.0046 542.29 7.02305 536.676C-54.717 517.402 -133.362 510.043 -195.389 538.785" stroke="#2E60E0" stroke-width="0.552088" stroke-miterlimit="10"/>
<path d="M2385.45 42.165C2312.59 137.157 2212.57 220.788 2095.54 270.277C2039.64 294.177 1982.54 302.099 1925.57 321.157C1860.54 342.91 1793.01 353.41 1724.59 358.617C1677.74 362.2 1630.41 363.204 1583.04 363.331C1489.68 363.569 1395.98 360.67 1306.75 353.742C1254.58 349.689 1204.02 344.748 1155.3 339.172C1120.07 335.136 1084.78 330.891 1049.49 325.889C999.071 318.745 948.301 309.431 893.892 304.843C874.818 303.237 855.434 302.287 835.901 301.591C752.939 298.34 665.394 287.397 587.61 293.2C567.371 294.712 547.783 297.291 528.874 301.288C454.717 316.967 383.194 349.181 318.666 393.636C307.602 401.232 296.643 409.243 285.734 417.524C246.817 447.072 208.419 480.07 167.604 510.286C143.295 528.301 118.418 547.309 90.3995 557.065C72.9866 563.138 54.9664 565.042 35.8586 562.359C16.9607 559.704 -0.286568 554.277 -18.7098 549.082C-81.8521 531.006 -161.099 523.498 -224.374 551.776" stroke="#2E60E0" stroke-width="0.552088" stroke-miterlimit="10"/>
<path d="M2380.4 44.6113C2310.15 140.658 2211.35 225.039 2095.03 274.335C2038.24 298.66 1980.25 306.125 1922.49 325.967C1856.76 348.547 1788.41 359.986 1719.11 365.866C1671.65 369.907 1623.69 371.238 1575.69 371.442C1481.08 371.84 1386.13 368.13 1295.71 359.429C1242.85 354.344 1191.62 348.045 1142.24 340.895C1106.47 335.717 1070.71 330.196 1035 323.907C983.932 314.914 932.594 303.706 877.418 297.965C858.101 295.955 838.457 294.696 818.654 293.797C734.427 289.678 645.58 280.712 566.675 288.971C546.176 291.119 526.345 294.354 507.182 298.997C432.247 317.155 360.492 351.959 296.052 398.726C285.005 406.721 274.074 415.118 263.181 423.775C224.331 454.675 185.966 488.877 144.835 519.772C120.334 538.195 95.1253 557.286 66.6927 567.323C49.0148 573.573 30.7241 575.715 11.4066 573.479C-7.84476 571.249 -25.5778 566.313 -44.4316 561.499C-109.009 544.748 -188.83 536.964 -253.347 564.784" stroke="#2E60E0" stroke-width="0.552088" stroke-miterlimit="10"/>
<path d="M2375.36 47.0625C2307.71 144.158 2210.14 229.29 2094.52 278.393C2036.85 303.149 1977.95 310.144 1919.41 330.77C1852.98 354.178 1783.81 366.562 1713.64 373.104C1665.57 377.598 1616.98 379.26 1568.35 379.547C1472.49 380.104 1376.3 375.577 1284.69 365.11C1231.14 358.987 1179.24 351.329 1129.19 342.612C1092.88 336.285 1056.65 329.5 1020.53 321.92C968.811 311.071 916.909 297.981 860.96 291.086C841.394 288.673 821.491 287.105 801.418 286.001C715.927 281.016 625.776 274.026 545.745 284.742C524.992 287.519 504.907 291.417 485.496 296.706C409.783 317.332 337.796 354.736 273.45 403.811C262.419 412.197 251.51 420.986 240.639 430.024C201.855 462.277 163.518 497.688 122.084 529.251C97.3889 548.083 71.8438 567.262 43.0027 577.575C25.0598 584.002 6.50408 586.387 -13.0343 584.592C-32.639 582.793 -50.8579 578.348 -70.1424 573.915C-136.161 558.484 -216.545 550.424 -282.304 577.791" stroke="#2E60E0" stroke-width="0.552088" stroke-miterlimit="10"/>
<path d="M2370.3 49.5083C2305.26 147.653 2208.93 233.536 2094.01 282.445C2035.44 307.626 1975.64 314.157 1916.32 335.573C1849.19 359.81 1779.19 373.137 1708.15 380.342C1659.48 385.294 1610.25 387.282 1560.98 387.646C1463.89 388.364 1366.44 383.025 1273.65 370.78C1219.4 363.625 1166.83 354.603 1116.12 344.318C1079.27 336.843 1042.57 328.788 1006.03 319.927C953.662 307.229 901.191 292.251 844.475 284.196C824.666 281.38 804.498 279.503 784.159 278.194C697.41 272.342 605.951 267.329 524.794 280.508C503.781 283.92 483.453 288.474 463.788 294.409C387.29 317.503 315.072 357.507 250.82 408.896C239.811 417.68 228.918 426.861 218.07 436.274C179.352 469.885 141.042 506.494 99.2991 538.736C74.4109 557.976 48.5345 577.244 19.2793 587.839C1.07145 594.442 -17.7548 597.07 -37.503 595.717C-57.4665 594.348 -76.1657 590.389 -95.8808 586.343C-163.335 572.237 -244.293 563.9 -311.295 590.803" stroke="#2E60E0" stroke-width="0.552088" stroke-miterlimit="10"/>
<path d="M2365.26 51.9536C2302.82 151.153 2207.71 237.787 2093.51 286.497C2034.04 312.109 1973.34 318.171 1913.25 340.37C1845.41 365.435 1774.6 379.706 1702.68 387.574C1653.4 392.979 1603.55 395.297 1553.64 395.745C1455.29 396.622 1356.6 390.467 1262.63 376.455C1207.68 368.262 1154.46 357.882 1103.07 346.029C1065.69 337.405 1028.52 328.081 991.551 317.933C938.54 303.38 885.501 286.519 828.012 277.305C807.954 274.092 787.533 271.9 766.918 270.387C678.904 263.669 586.136 260.627 503.859 276.267C482.592 280.308 462.01 285.526 442.102 292.112C364.815 317.674 292.375 360.278 228.212 413.975C217.22 423.15 206.355 432.724 195.517 442.518C156.86 477.481 118.589 515.294 76.531 548.215C51.4551 567.864 25.2364 587.214 -4.42727 598.091C-22.9001 604.87 -41.9969 607.747 -61.9549 606.825C-82.2717 605.892 -101.457 602.419 -121.603 598.748C-190.498 585.967 -272.019 577.354 -340.263 603.799" stroke="#2E60E0" stroke-width="0.552088" stroke-miterlimit="10"/>
<path d="M2360.21 54.4048C2300.37 154.653 2206.5 242.038 2093 290.561C2032.64 316.597 1971.03 322.19 1910.16 345.184C1841.62 371.072 1769.99 386.293 1697.2 394.828C1647.32 400.691 1596.82 403.336 1546.28 403.86C1446.69 404.898 1346.74 397.925 1251.59 382.147C1195.95 372.921 1142.06 361.173 1090 347.757C1052.08 337.985 1014.44 327.39 977.054 315.957C923.402 299.549 869.783 280.805 811.526 270.431C791.226 266.815 770.539 264.314 749.659 262.597C660.387 255.012 566.305 253.935 482.907 272.044C461.381 276.72 440.545 282.594 420.394 289.826C342.317 317.845 269.657 363.061 205.582 419.07C194.606 428.643 183.763 438.603 172.948 448.778C134.357 485.095 96.1135 524.111 53.7462 557.705C28.4771 577.763 1.92722 597.202 -28.1506 608.354C-46.8829 615.305 -66.2502 618.435 -86.4291 617.949C-107.094 617.452 -126.77 614.46 -147.341 611.175C-217.677 599.719 -299.767 590.831 -369.253 616.812" stroke="#2E60E0" stroke-width="0.552088" stroke-miterlimit="10"/>
<path d="M2355.15 56.8506C2297.93 158.148 2205.28 246.289 2092.49 294.613C2031.24 321.08 1968.73 326.204 1907.08 349.982C1837.83 376.692 1765.39 392.863 1691.72 402.06C1641.23 408.376 1590.11 411.347 1538.92 411.959C1438.09 413.157 1336.9 405.373 1240.55 387.817C1184.22 377.553 1129.67 364.441 1076.94 349.463C1038.48 338.537 1000.37 326.678 962.567 313.964C908.269 295.701 854.081 275.08 795.058 263.541C774.509 259.528 753.562 256.718 732.412 254.796C641.875 246.344 546.485 247.227 461.971 267.809C440.186 273.115 419.102 279.646 398.702 287.53C319.831 318.005 246.955 365.832 182.973 424.155C172.02 434.12 161.194 444.472 150.4 455.028C111.876 492.697 73.66 532.917 30.9836 567.19C5.52124 587.656 -21.3655 607.183 -51.8518 618.612C-70.8492 625.739 -90.4814 629.123 -110.876 629.068C-131.894 629.013 -152.056 626.501 -173.057 623.591C-244.829 613.461 -327.493 604.29 -398.216 629.819" stroke="#2E60E0" stroke-width="0.552088" stroke-miterlimit="10"/>
<path d="M2350.11 59.2964C2295.49 161.648 2204.08 250.534 2091.98 298.665C2029.84 325.558 1966.38 330.09 1904 354.78C1833.99 382.18 1760.78 399.427 1686.24 409.293C1635.15 416.067 1583.4 419.363 1531.58 420.053C1429.5 421.411 1327.06 412.81 1229.52 393.487C1172.5 382.191 1117.28 367.71 1063.89 351.169C1024.89 339.089 986.312 325.966 948.086 311.965C893.147 291.847 838.358 269.465 778.589 256.646C757.786 252.268 736.591 249.11 715.17 246.984C623.375 237.665 526.665 240.514 441.036 263.569C418.991 269.504 397.659 276.698 377.011 285.228C297.344 318.16 224.248 368.598 160.36 429.229C149.423 439.586 138.624 450.335 127.842 461.266C89.3836 500.288 51.2012 541.717 8.21003 576.664C-17.4455 597.538 -44.6635 617.149 -75.5639 628.858C-94.8262 636.163 -114.724 639.801 -135.333 640.176C-156.704 640.563 -177.352 638.531 -198.785 636.002C-271.997 627.197 -355.224 617.75 -427.195 642.821" stroke="#2E60E0" stroke-width="0.552088" stroke-miterlimit="10"/>
<path d="M2345.06 61.748C2293.03 165.149 2202.86 254.786 2091.47 302.724C2028.43 330.046 1964.08 334.121 1900.92 359.589C1830.21 387.823 1756.18 406.008 1680.77 416.537C1629.06 423.763 1576.68 427.391 1524.22 428.164C1420.9 429.682 1317.21 420.269 1218.49 399.173C1160.78 386.84 1104.9 370.995 1050.83 352.892C1011.3 339.658 972.278 325.199 933.599 309.984C878.058 287.911 822.651 263.735 762.12 249.767C741.074 244.986 719.615 241.519 697.923 239.189C604.863 229.003 506.84 233.812 420.095 259.341C397.791 265.905 376.204 273.756 355.319 282.942C274.852 318.326 201.546 371.381 137.746 434.325C126.826 445.08 116.049 456.215 105.289 467.528C66.8969 507.902 28.7421 550.534 -14.5582 586.155C-40.407 607.438 -67.9563 627.136 -99.2707 639.122C-118.798 646.603 -138.96 650.495 -159.791 651.296C-181.51 652.129 -202.649 650.567 -224.512 648.425C-299.16 640.944 -382.961 631.216 -456.174 655.828" stroke="#2E60E0" stroke-width="0.552088" stroke-miterlimit="10"/>
<path d="M2340.01 64.1934C2290.59 168.643 2201.65 259.036 2090.97 306.781C2027.04 334.529 1961.78 338.145 1897.84 364.391C1826.44 393.464 1751.58 412.583 1675.3 423.78C1622.99 431.465 1569.97 435.418 1516.87 436.268C1412.3 437.946 1307.36 427.716 1207.46 404.854C1149.06 391.488 1092.52 374.268 1037.77 354.608C997.707 340.221 958.211 324.503 919.106 308.001C862.92 284.079 806.944 258.009 745.64 242.888C724.346 237.704 702.627 233.927 680.67 231.393C586.351 220.341 487.003 227.104 399.149 255.111C376.585 262.305 354.745 270.812 333.616 280.651C252.343 318.485 178.833 374.158 115.122 439.409C104.224 450.556 93.4634 462.084 82.7252 473.777C44.3992 515.504 6.27204 559.339 -37.3319 595.639C-63.3739 617.331 -91.2599 637.118 -122.983 649.38C-142.775 657.037 -163.203 661.189 -184.248 662.414C-206.315 663.701 -227.946 662.608 -250.239 660.841C-326.328 654.685 -410.693 644.681 -485.147 668.835" stroke="#2E60E0" stroke-width="0.552088" stroke-miterlimit="10"/>
<path d="M2334.96 66.6387C2288.15 172.143 2200.44 263.282 2090.46 310.833C2025.63 339.012 1959.47 342.164 1894.76 369.194C1822.65 399.101 1746.97 419.158 1669.81 431.017C1616.9 439.16 1563.25 443.439 1509.52 444.372C1403.71 446.211 1297.51 435.163 1196.43 410.529C1137.33 396.125 1080.13 377.542 1024.71 356.32C984.115 340.778 944.149 323.807 904.625 306.008C847.799 280.242 791.243 252.273 729.177 236.003C707.64 230.416 685.656 226.33 663.429 223.592C567.845 211.672 467.178 220.395 378.22 250.876C355.391 258.699 333.302 267.864 311.93 278.354C229.851 318.634 156.137 376.929 92.5139 444.494C81.6322 456.038 70.8996 467.952 60.178 480.026C21.9183 523.111 -16.1758 568.145 -60.0944 605.124C-86.3297 627.224 -114.547 647.093 -146.684 659.637C-166.736 667.465 -187.428 671.888 -208.695 673.533C-231.109 675.267 -253.232 674.643 -275.956 673.262C-353.485 668.432 -438.419 658.152 -514.115 681.842" stroke="#2E60E0" stroke-width="0.552088" stroke-miterlimit="10"/>
<path d="M2329.91 69.0903C2285.7 175.643 2199.22 267.539 2089.95 314.891C2024.23 343.495 1957.17 346.189 1891.68 373.998C1818.87 404.738 1742.36 425.734 1664.33 438.255C1610.81 446.851 1556.53 451.461 1502.16 452.477C1395.1 454.47 1287.66 442.617 1185.39 416.21C1125.6 400.774 1067.78 380.728 1011.64 358.042C970.544 341.281 930.076 323.117 890.127 304.026C832.655 276.416 775.53 246.543 712.691 229.124C690.906 223.134 668.668 218.739 646.17 215.797C549.328 203.01 447.275 213.528 357.268 246.653C334.163 255.061 311.836 264.927 290.222 276.068C207.332 318.8 133.412 379.712 69.8892 449.584C59.0241 461.52 48.3136 473.832 37.6086 486.281C-0.584921 530.719 -38.6514 576.956 -82.8792 614.609C-109.308 637.112 -137.862 657.076 -170.407 669.895C-190.724 677.9 -211.676 682.582 -233.169 684.652C-255.926 686.844 -278.545 686.684 -301.699 685.685C-380.665 682.179 -466.167 671.618 -543.106 694.855" stroke="#2E60E0" stroke-width="0.552088" stroke-miterlimit="10"/>
<path d="M2324.86 71.5366C2283.26 179.139 2198.01 271.785 2089.44 318.944C2022.83 347.978 1954.87 350.214 1888.6 378.802C1815.09 410.375 1737.76 432.304 1658.86 445.494C1604.73 454.548 1549.82 459.484 1494.81 460.577C1386.5 462.73 1277.81 450.06 1174.35 421.887C1113.87 405.412 1055.39 384.019 998.579 359.754C956.946 341.85 916.009 322.417 875.64 302.039C817.527 272.585 759.823 240.813 696.217 222.24C674.189 215.842 651.686 211.143 628.923 207.996C530.817 194.343 427.449 206.848 336.327 242.419C312.963 251.468 290.36 261.941 268.531 273.772C184.735 318.784 110.711 382.484 47.2758 454.67C36.4327 467.003 25.7388 479.701 15.0559 492.526C-23.0714 538.316 -61.1048 585.763 -105.647 624.089C-132.269 647.001 -161.154 667.052 -194.114 680.148C-214.696 688.33 -235.907 693.277 -257.621 695.761C-280.72 698.406 -303.836 698.709 -327.416 698.091C-407.822 695.91 -493.892 685.073 -572.074 707.852" stroke="#2E60E0" stroke-width="0.552088" stroke-miterlimit="10"/>
<path d="M2319.81 73.9824C2280.81 182.639 2196.79 276.03 2088.93 322.996C2021.43 352.456 1952.57 354.234 1885.51 383.599C1811.3 416.012 1733.16 438.874 1653.37 452.726C1598.64 462.233 1543.09 467.495 1487.45 468.676C1377.9 470.989 1267.96 457.502 1163.32 427.556C1102.15 410.05 1043 387.304 985.523 361.46C943.354 342.419 901.942 321.716 861.154 300.041C802.395 268.743 744.122 235.071 679.748 215.345C657.472 208.543 634.709 203.535 611.676 200.184C512.311 185.664 407.624 200.162 315.387 238.174C291.763 247.857 268.906 258.993 246.834 271.47C162.248 318.983 88.0034 385.244 24.6568 459.743C13.8303 472.469 3.16397 485.559 -7.50238 498.765C-45.5634 545.908 -83.5691 594.558 -128.421 633.563C-155.236 656.883 -184.458 677.018 -217.826 690.395C-238.673 698.753 -260.138 703.965 -282.078 706.869C-305.52 709.972 -329.133 710.739 -353.143 710.502C-434.984 709.641 -521.624 698.533 -601.047 720.848" stroke="#2E60E0" stroke-width="0.552088" stroke-miterlimit="10"/>
<path d="M2314.76 76.4331C2278.37 186.139 2195.58 280.286 2088.42 327.059C2020.03 356.949 1950.26 358.263 1882.43 388.407C1807.52 421.654 1728.55 445.455 1647.9 459.975C1592.56 469.94 1536.38 475.527 1480.1 476.786C1369.31 479.259 1258.12 464.96 1152.29 433.242C1090.42 414.698 1030.61 390.605 972.455 363.182C929.751 342.998 887.869 321.025 846.656 298.058C787.257 264.916 728.404 229.34 663.263 208.465C640.743 201.26 617.721 195.949 594.417 192.388C493.788 177.002 387.787 193.492 294.435 233.949C270.551 244.274 247.447 256.072 225.126 269.184C139.745 319.197 65.2849 388.026 2.02659 464.838C-8.7833 477.956 -19.4275 491.438 -30.0718 505.025C-68.0665 553.52 -106.045 603.374 -151.206 643.052C-178.214 666.781 -207.767 687.004 -241.549 700.657C-262.661 709.193 -284.375 714.714 -306.552 717.993C-330.331 721.598 -354.446 722.78 -378.887 722.929C-462.169 723.392 -549.377 712.008 -630.043 733.866" stroke="#2E60E0" stroke-width="0.552088" stroke-miterlimit="10"/>
<path d="M2309.71 78.8794C2275.92 189.634 2194.37 284.532 2087.92 331.112C2018.62 361.427 1947.97 362.283 1879.35 393.211C1803.73 427.291 1723.95 452.03 1642.42 467.213C1476.36 498.141 1302.63 489.418 1141.26 438.918C1032.7 404.948 930.452 353.328 832.175 296.065C772.129 261.08 712.708 223.604 646.8 201.576C525.633 161.08 389.83 176.892 273.505 229.71C157.18 282.528 59.1291 370.073 -20.5759 469.918C-92.9105 560.521 -157.88 667.163 -265.245 710.91C-388.035 760.941 -530.717 713.345 -659 746.862" stroke="#2E60E0" stroke-width="0.552088" stroke-miterlimit="10"/>
<path d="M2053.38 778.977C2054.74 638.995 2005.24 499.063 1916.17 391.069C1890.83 360.345 1861.11 331.294 1823.64 317.818C1715.35 278.884 1599.72 363.994 1508.68 412.319C1398.8 470.63 1290.18 531.741 1175.78 580.949C1111.55 608.575 1036.12 632.022 973.995 599.957C911.084 567.483 887.146 491.869 861.137 426.022C830.833 349.292 789.101 275.379 727.841 220.126C666.581 164.873 583.768 129.992 501.761 138.985C437.542 146.03 379.026 178.614 325.589 214.925C185.187 310.337 65.9088 436.649 -21.3157 582.285" stroke="#BC2EE0" stroke-width="0.552088" stroke-miterlimit="10"/>
<path d="M2056.89 772.925C2058.09 649.208 2014.57 528.124 1937.41 424.276C1930.24 414.631 1922.86 405.146 1915.17 395.921C1889.87 365.617 1860.4 336.936 1823.45 323.354C1716.6 284.029 1602.74 364.689 1511.82 411.28C1431.22 452.587 1351.18 496.202 1268.3 535.682C1239.55 549.434 1210.55 562.679 1181.18 575.173C1117.47 602.269 1042.93 625.402 981.266 594.833C918.83 563.877 894.113 491.189 867.387 427.92C836.238 354.199 794.025 283.157 732.881 230.035C711.593 211.54 687.77 195.419 662.324 182.627C614.712 158.677 561.414 146.366 508.452 151.964C444.835 158.688 386.744 189.953 333.65 224.608C226.158 294.717 131.171 381.743 52.8629 481.991C29.493 511.903 7.61372 542.986 -12.6534 575.156" stroke="#BC2EE0" stroke-width="0.552088" stroke-miterlimit="10"/>
<path d="M2060.4 766.88C2061.56 647.287 2015.72 532.91 1936.36 428.693C1929.16 419.235 1921.83 409.872 1914.16 400.785C1888.89 370.906 1859.68 342.589 1823.26 328.897C1717.84 289.174 1605.76 365.39 1514.96 410.253C1435.2 449.661 1355.87 492.122 1273.03 530.768C1244.49 544.195 1215.7 557.158 1186.57 569.409C1123.37 595.981 1049.72 618.793 988.532 589.72C926.571 560.277 901.075 490.515 873.636 429.83C841.648 359.118 798.944 290.947 737.922 239.961C716.672 222.212 692.965 206.736 667.691 194.464C620.415 171.475 567.608 159.627 515.149 164.96C452.133 171.37 394.473 201.309 341.716 234.302C234.864 301.033 140.501 383.278 61.9669 478.916C38.5307 507.454 16.5079 537.173 -3.9856 568.04" stroke="#BC2EE0" stroke-width="0.552088" stroke-miterlimit="10"/>
<path d="M2063.91 760.83C2065.03 645.36 2016.9 537.692 1935.32 433.104C1928.09 423.824 1920.8 414.587 1913.16 405.644C1887.93 376.184 1858.97 348.243 1823.09 334.441C1719.1 294.326 1608.81 366.097 1518.12 409.221C1439.22 446.735 1360.48 487.844 1277.78 525.855C1249.42 538.896 1220.88 551.638 1191.98 563.646C1129.29 589.688 1056.53 612.185 995.814 584.609C934.328 556.678 908.054 489.848 879.897 431.741C847.064 364.038 803.88 298.737 742.979 249.883C721.762 232.878 698.177 218.049 673.074 206.29C626.13 184.262 573.825 172.877 521.857 177.951C459.443 184.046 402.214 212.661 349.793 243.992C243.576 307.35 149.843 384.808 71.082 475.842C47.5796 503.004 25.4187 531.36 4.69885 560.929" stroke="#BC2EE0" stroke-width="0.552088" stroke-miterlimit="10"/>
<path d="M2067.42 754.784C2068.49 643.438 2018.1 542.467 1934.28 437.52C1927 428.422 1919.76 419.307 1912.14 410.507C1886.94 381.472 1858.25 353.896 1822.89 339.983C1720.34 299.476 1611.86 366.814 1521.25 408.194C1443.23 443.825 1365.14 483.703 1282.51 520.941C1254.34 533.639 1226.03 546.116 1197.36 557.881C1135.19 583.399 1063.33 605.582 1003.07 579.496C942.062 553.084 915.01 489.179 886.136 433.65C852.458 368.957 808.793 306.521 748.009 259.803C726.83 243.539 703.367 229.361 678.429 218.115C631.822 197.053 580.014 186.132 528.537 190.936C466.72 196.71 409.921 224.006 357.842 253.675C252.266 313.654 159.157 386.331 80.1638 472.755C56.5896 498.543 34.2907 525.534 13.3445 553.801" stroke="#BC2EE0" stroke-width="0.552088" stroke-miterlimit="10"/>
<path d="M2070.92 748.734C2071.96 641.513 2019.33 547.232 1933.23 441.933C1925.93 433.011 1918.72 424.028 1911.14 415.366C1885.98 386.751 1857.53 359.544 1822.7 345.527C1721.59 304.628 1614.93 367.539 1524.39 407.168C1447.25 440.933 1369.81 479.569 1287.24 516.034C1259.28 528.39 1231.2 540.602 1202.76 552.124C1141.11 577.111 1070.13 598.98 1010.34 574.39C949.808 549.491 921.983 488.518 892.385 435.567C857.869 373.877 813.718 314.317 753.049 269.736C731.91 254.217 708.562 240.685 683.795 229.953C637.525 209.851 586.208 199.395 535.234 203.938C474.018 209.399 417.65 235.374 365.908 263.382C260.973 319.987 168.487 387.878 89.2677 469.697C65.6273 494.111 43.1849 519.738 22.0123 546.702" stroke="#BC2EE0" stroke-width="0.552088" stroke-miterlimit="10"/>
<path d="M2074.43 742.682C2075.43 639.585 2020.59 551.98 1932.19 446.338C1924.87 437.593 1917.69 428.737 1910.13 420.218C1885.01 392.029 1856.82 365.186 1822.52 351.058C1722.84 309.768 1618.02 368.256 1527.54 406.124C1451.3 438.034 1374.48 475.416 1291.98 511.103C1264.21 523.117 1236.36 535.064 1208.16 546.337C1147.02 570.801 1076.94 592.349 1017.62 569.255C957.554 545.868 928.95 487.827 898.635 437.455C863.274 378.773 818.643 322.085 758.09 279.635C736.989 264.861 713.763 251.975 689.162 241.761C643.222 222.62 592.408 212.628 541.925 216.906C481.311 222.052 425.368 246.703 373.969 273.048C269.674 326.275 177.812 389.384 98.3661 466.594C74.6539 489.633 52.0735 513.897 30.6801 539.558" stroke="#BC2EE0" stroke-width="0.552088" stroke-miterlimit="10"/>
<path d="M2077.94 736.637C2078.9 637.664 2021.88 556.728 1931.15 450.755C1923.8 442.181 1916.65 433.458 1909.12 425.083C1884.04 397.313 1856.09 370.84 1822.33 356.607C1724.08 314.919 1621.11 369.007 1530.68 405.103C1455.35 435.169 1379.16 471.293 1296.71 506.201C1269.14 517.878 1241.51 529.549 1213.56 540.585C1152.93 564.518 1083.73 585.752 1024.88 564.154C965.294 542.286 935.912 487.165 904.885 439.376C868.684 383.704 823.567 329.886 763.136 289.573C742.074 275.539 718.963 263.304 694.533 253.604C648.931 235.424 598.613 225.9 548.622 229.914C488.61 234.739 433.097 258.071 382.029 282.754C278.375 332.608 187.136 390.931 107.459 463.536C83.6805 485.2 60.9566 508.1 39.3368 532.459" stroke="#BC2EE0" stroke-width="0.552088" stroke-miterlimit="10"/>
<path d="M2081.45 730.586C2082.37 635.737 2023.2 561.453 1930.11 455.165C1922.75 446.762 1915.62 438.178 1908.12 429.94C1883.07 402.595 1855.38 376.493 1822.15 362.149C1725.33 320.069 1624.24 369.757 1533.83 404.069C1459.42 432.309 1383.83 467.157 1301.46 501.281C1274.09 512.616 1246.68 524.022 1218.96 534.815C1158.84 558.224 1090.54 579.137 1032.15 559.041C973.04 538.685 942.879 486.496 911.134 441.286C874.089 388.622 828.487 337.675 768.176 299.493C747.153 286.204 724.164 274.616 699.9 265.429C654.634 248.215 604.813 239.15 555.313 242.904C495.903 247.414 440.821 269.421 390.09 292.448C287.075 338.923 196.461 392.465 116.557 460.46C92.7072 480.749 69.8452 502.28 47.999 525.347" stroke="#BC2EE0" stroke-width="0.552088" stroke-miterlimit="10"/>
<path d="M2084.96 724.535C2085.83 633.81 2024.53 566.163 1929.06 459.577C1921.69 451.345 1914.58 442.893 1907.11 434.799C1882.1 407.874 1854.66 382.141 1821.96 367.687C1726.58 325.215 1627.37 370.519 1536.98 403.037C1463.51 429.466 1388.51 463.033 1306.19 496.368C1279.02 507.371 1251.84 518.501 1224.36 529.052C1164.75 551.93 1097.34 572.529 1039.42 553.929C980.786 535.086 949.847 485.829 917.384 443.196C879.494 393.541 833.411 345.466 773.217 309.42C752.232 296.876 729.359 285.934 705.266 277.261C660.331 261.007 611.008 252.411 562.01 255.895C503.202 260.085 448.545 280.772 398.156 302.138C295.782 345.239 205.791 393.994 125.661 457.385C101.745 476.299 78.7393 496.467 56.6724 518.231" stroke="#BC2EE0" stroke-width="0.552088" stroke-miterlimit="10"/>
<path d="M2088.47 718.49C2089.31 631.89 2025.9 570.867 1928.02 463.988C1920.63 455.922 1913.55 447.608 1906.1 439.652C1881.13 413.152 1853.95 387.784 1821.77 373.225C1727.82 330.361 1630.51 371.293 1540.11 402C1467.6 426.634 1393.19 458.904 1310.92 491.444C1283.95 502.11 1257 512.97 1229.74 523.277C1170.65 545.631 1104.14 565.909 1046.68 548.806C988.52 531.476 956.803 485.15 923.622 445.096C884.893 398.45 838.325 353.245 778.246 319.33C757.3 307.527 734.543 297.23 710.621 289.076C666.023 273.783 617.197 265.651 568.69 268.875C510.478 272.75 456.257 292.112 406.205 311.816C304.472 351.539 215.105 395.507 134.743 454.294C110.76 471.834 87.6113 490.638 65.318 511.098" stroke="#BC2EE0" stroke-width="0.552088" stroke-miterlimit="10"/>
<path d="M2091.97 712.439C2092.77 629.962 2027.29 575.543 1926.98 468.399C1919.58 460.499 1912.51 452.328 1905.1 444.51C1880.15 418.429 1853.23 393.431 1821.59 378.762C1729.08 335.506 1633.67 372.087 1543.26 400.967C1471.71 423.823 1397.88 454.779 1315.66 486.53C1288.9 496.865 1262.16 507.448 1235.15 517.513C1176.57 539.337 1110.95 559.306 1053.97 543.693C996.277 527.881 963.787 484.476 929.883 447.011C890.31 403.368 843.261 361.04 783.304 329.256C762.396 318.198 739.76 308.547 716.004 300.912C671.743 286.58 623.413 278.911 575.398 281.87C517.788 285.431 463.992 303.468 414.282 321.516C313.189 357.865 224.447 397.047 143.858 451.223C119.804 467.389 96.5166 484.829 74.0024 503.987" stroke="#BC2EE0" stroke-width="0.552088" stroke-miterlimit="10"/>
<path d="M2095.48 706.394C2096.24 628.042 2028.71 580.203 1925.93 472.817C1918.53 465.082 1911.49 457.032 1904.09 449.375C1879.23 423.67 1852.51 399.091 1821.4 384.311C1730.32 340.658 1636.84 372.905 1546.41 399.946C1475.83 421.047 1402.56 450.678 1320.4 481.622C1293.84 491.626 1267.33 501.928 1240.54 511.75C1182.48 533.049 1117.75 552.698 1061.23 538.581C1004.02 524.282 970.749 483.809 936.133 448.922C895.714 408.288 848.185 368.831 788.344 339.184C767.475 328.871 744.956 319.866 721.37 312.744C677.441 299.378 629.608 292.173 582.095 294.867C525.086 298.108 471.722 314.825 422.348 331.211C321.896 364.182 233.777 398.583 152.962 448.155C128.841 462.945 105.411 479.022 82.6703 496.882" stroke="#BC2EE0" stroke-width="0.552088" stroke-miterlimit="10"/>
<path d="M2098.99 700.343C2099.71 626.114 2030.16 584.835 1924.89 477.227C1917.48 469.653 1910.46 461.752 1903.08 454.233C1878.27 428.947 1851.79 404.738 1821.21 389.848C1731.57 345.803 1640.03 373.738 1549.55 398.908C1479.96 418.27 1407.25 446.559 1325.13 476.703C1298.79 486.375 1272.49 496.401 1245.94 505.98C1188.39 526.75 1124.55 546.084 1068.5 533.463C1011.76 520.677 977.716 483.135 942.382 450.826C901.125 413.202 853.11 376.615 793.385 349.099C772.549 339.525 750.156 331.172 726.731 324.564C683.138 312.158 635.802 305.417 588.781 307.847C532.374 310.773 479.44 326.165 430.403 340.889C330.591 370.487 243.096 400.101 162.05 445.063C137.857 458.478 114.288 473.192 91.3214 489.749" stroke="#BC2EE0" stroke-width="0.552088" stroke-miterlimit="10"/>
<path d="M2102.5 694.291C2103.18 624.187 2031.64 589.444 1923.85 481.638C1916.43 474.223 1909.42 466.467 1902.07 459.091C1877.29 434.225 1851.08 410.385 1821.03 395.391C1732.81 350.953 1643.23 374.593 1552.69 397.881C1484.09 415.525 1411.94 442.456 1329.87 471.789C1303.72 481.13 1277.65 490.88 1251.34 500.216C1194.3 520.461 1131.35 539.475 1075.77 528.35C1019.5 517.082 984.678 482.466 948.627 452.736C906.524 418.12 858.023 384.404 798.42 359.025C777.623 350.197 755.346 342.49 732.092 336.394C688.836 324.95 641.997 318.672 595.467 320.842C539.662 323.454 487.152 337.521 438.453 350.589C339.281 376.807 252.41 401.64 171.137 441.998C146.878 454.039 123.166 467.389 99.9783 482.643" stroke="#BC2EE0" stroke-width="0.552088" stroke-miterlimit="10"/>
<path d="M2106.01 688.246C2106.65 622.266 2033.14 594.032 1922.81 486.049C1915.39 478.795 1908.39 471.181 1901.07 463.949C1876.33 439.503 1850.36 416.033 1820.84 400.928C1734.07 356.099 1646.44 375.471 1555.84 396.843C1488.24 412.787 1416.63 438.349 1334.6 466.87C1308.67 475.885 1282.81 485.353 1256.74 494.446C1200.21 514.161 1138.15 532.861 1083.04 523.232C1027.25 513.477 991.645 481.787 954.876 454.641C911.935 423.034 862.948 392.189 803.466 368.94C782.707 360.858 760.552 353.796 737.464 348.22C694.539 337.736 648.197 331.928 602.169 333.833C546.966 336.124 494.887 348.872 446.524 360.278C347.993 383.123 261.746 403.17 180.246 438.917C155.916 449.578 132.066 461.564 108.651 475.521" stroke="#BC2EE0" stroke-width="0.552088" stroke-miterlimit="10"/>
<path d="M2109.51 682.195C2110.11 620.339 2034.67 598.587 1921.76 490.46C1914.35 483.361 1907.35 475.896 1900.06 468.807C1875.35 444.786 1849.61 421.742 1820.65 406.471C1735.21 361.421 1649.66 376.382 1558.97 395.816C1492.39 410.087 1421.32 434.258 1339.33 461.956C1313.61 470.646 1287.97 479.833 1262.13 488.683C1206.12 507.873 1144.95 526.252 1090.3 518.12C1034.98 509.877 998.607 481.119 961.126 456.551C917.34 427.953 867.872 399.979 808.506 378.867C787.786 371.524 765.747 365.114 742.83 360.052C700.242 350.534 654.396 345.184 608.86 346.823C554.253 348.8 502.605 360.223 454.585 369.967C356.694 389.434 271.07 404.699 189.339 435.842C164.942 445.128 140.949 455.751 117.308 468.41" stroke="#BC2EE0" stroke-width="0.552088" stroke-miterlimit="10"/>
<path d="M2113.03 676.15C2113.58 618.418 2036.23 603.12 1920.72 494.878C1913.31 487.932 1906.32 480.623 1899.06 473.672C1874.39 450.07 1848.9 427.396 1820.47 412.02C1736.47 366.572 1652.89 377.321 1562.13 394.795C1496.57 407.416 1426.03 430.178 1344.08 457.054C1318.56 465.424 1293.14 474.323 1267.53 482.93C1212.04 501.591 1151.76 519.655 1097.58 513.025C1042.74 506.3 1005.59 480.468 967.381 458.478C922.75 432.889 872.803 407.786 813.553 388.805C792.871 382.207 770.948 376.444 748.202 371.894C705.951 363.337 660.602 358.457 615.557 359.831C561.552 361.487 510.335 371.596 462.651 379.679C365.4 395.772 280.395 406.251 198.443 432.784C173.975 440.696 149.848 449.954 125.982 461.311" stroke="#BC2EE0" stroke-width="0.552088" stroke-miterlimit="10"/>
<path d="M2116.53 670.1C2117.05 616.487 2037.81 607.62 1919.67 499.289C1912.26 492.499 1905.28 485.338 1898.04 478.531C1873.41 455.354 1848.17 433.044 1820.27 417.558C1737.7 371.718 1656.12 378.288 1565.26 393.758C1500.73 404.75 1430.71 426.088 1348.81 452.13C1323.5 460.179 1298.29 468.786 1272.92 477.156C1217.94 495.292 1158.56 513.042 1104.84 507.902C1050.47 502.69 1012.54 479.789 973.62 460.378C928.15 437.792 877.716 415.559 818.582 398.715C797.94 392.863 776.138 387.745 753.557 383.71C711.637 376.113 666.785 371.696 622.237 372.806C568.834 374.147 518.047 382.931 470.7 389.352C374.09 402.066 289.709 407.758 207.531 429.693C182.996 436.23 158.726 444.125 134.633 454.178" stroke="#BC2EE0" stroke-width="0.552088" stroke-miterlimit="10"/>
<path d="M2120.04 664.048C2120.52 614.559 2039.43 612.08 1918.63 503.694C1911.23 497.053 1904.25 490.052 1897.04 483.383C1872.45 460.626 1847.46 438.686 1820.1 423.095C1738.96 376.858 1659.37 379.281 1568.41 392.725C1504.91 402.11 1435.42 422.013 1353.55 447.216C1328.45 454.945 1303.46 463.265 1278.33 471.386C1223.86 488.992 1165.37 506.427 1112.12 502.784C1058.22 499.085 1019.51 479.11 979.875 462.282C933.56 442.705 882.646 423.343 823.634 408.636C803.03 403.524 781.344 399.057 758.934 395.54C717.351 388.904 672.996 384.951 628.945 385.801C576.143 386.828 525.782 394.287 478.777 399.046C382.808 408.387 299.05 409.293 216.64 426.617C192.039 431.779 167.626 438.311 143.306 447.061" stroke="#BC2EE0" stroke-width="0.552088" stroke-miterlimit="10"/>
<path d="M2123.55 658.003C2123.98 612.638 2041.07 616.514 1917.59 508.111C1910.19 501.618 1903.21 494.772 1896.03 488.247C1871.47 465.915 1846.74 444.339 1819.91 428.638C1740.21 382.003 1662.61 380.319 1571.55 391.692C1509.08 399.493 1440.12 417.938 1358.28 442.296C1333.39 449.706 1308.62 457.738 1283.72 465.617C1229.77 482.698 1172.16 499.813 1119.39 497.665C1065.97 495.485 1026.48 478.436 986.124 464.187C938.965 447.619 887.565 431.128 828.674 418.551C808.109 414.184 786.544 410.364 764.301 407.36C723.054 401.69 679.196 398.201 635.637 398.781C583.437 399.488 533.506 405.627 486.838 408.729C391.509 414.692 308.375 410.816 225.738 423.531C201.066 427.318 176.514 432.486 151.974 439.934" stroke="#BC2EE0" stroke-width="0.552088" stroke-miterlimit="10"/>
<path d="M2127.05 651.952C2127.45 610.711 2042.73 620.908 1916.54 512.522C1909.16 506.173 1902.17 499.487 1895.02 493.105C1870.49 471.198 1846.06 449.937 1819.72 434.18C1741.54 386.993 1665.86 381.395 1574.69 390.665C1513.25 396.909 1444.82 413.875 1363.01 437.388C1338.33 444.482 1313.78 452.223 1289.12 459.858C1235.67 476.41 1178.96 493.21 1126.65 492.558C1073.71 491.89 1033.44 477.773 992.374 466.102C944.375 452.543 892.49 438.923 833.715 428.483C813.188 424.861 791.739 421.687 769.667 419.197C728.752 414.488 685.396 411.462 642.328 411.782C590.724 412.174 541.224 416.989 494.893 418.429C400.204 421.019 317.694 412.356 234.831 420.467C210.092 422.879 185.397 426.678 160.631 432.833" stroke="#BC2EE0" stroke-width="0.552088" stroke-miterlimit="10"/>
<path d="M2130.57 645.907C2130.92 608.79 2044.42 625.27 1915.5 516.939C1908.12 510.739 1901.14 504.213 1894.02 497.969C1869.52 476.487 1845.34 455.591 1819.53 439.724C1742.79 392.139 1669.11 382.511 1577.84 389.638C1517.43 394.353 1449.53 409.823 1367.76 432.475C1343.29 439.254 1318.95 446.702 1294.52 454.095C1241.59 470.122 1185.77 486.602 1133.92 487.446C1081.45 488.291 1040.41 477.106 998.624 468.013C949.78 457.462 897.415 446.713 838.755 438.404C818.262 435.522 796.94 432.994 775.033 431.023C734.455 427.274 691.591 424.712 649.025 424.773C598.023 424.85 548.953 428.34 502.959 428.119C408.91 427.329 327.025 413.886 243.93 417.386C219.119 418.424 194.286 420.859 169.298 425.712" stroke="#BC2EE0" stroke-width="0.552088" stroke-miterlimit="10"/>
<path d="M2134.07 639.856C2134.39 606.863 2046.13 629.582 1914.46 521.345C1907.09 515.288 1900.1 508.923 1893.01 502.822C1868.55 481.766 1844.63 461.233 1819.35 445.262C1744.04 397.285 1672.35 383.665 1580.98 388.601C1521.6 391.808 1454.23 405.76 1372.49 427.556C1348.23 434.021 1324.1 441.171 1299.91 448.326C1247.49 463.823 1192.57 479.988 1141.19 482.329C1089.19 484.692 1047.38 476.427 1004.87 469.918C955.18 462.376 902.334 454.498 843.796 448.326C823.341 446.189 802.135 444.306 780.4 442.854C740.152 440.066 697.791 437.974 655.716 437.764C605.316 437.521 556.677 439.691 511.019 437.808C417.611 433.646 336.349 415.416 253.028 414.311C228.151 413.975 203.175 415.046 177.961 418.596" stroke="#BC2EE0" stroke-width="0.552088" stroke-miterlimit="10"/>
<path d="M2137.58 633.805C2137.86 604.937 2047.88 633.855 1913.42 525.756C1906.06 519.838 1899.05 513.654 1892 507.681C1867.53 487.093 1843.9 466.881 1819.16 450.805C1745.28 402.436 1675.59 384.869 1584.12 387.574C1525.77 389.296 1458.94 401.724 1377.22 422.643C1353.18 428.798 1329.26 435.65 1305.31 442.562C1253.41 457.534 1199.37 473.379 1148.46 477.216C1096.94 481.092 1054.35 475.759 1011.12 471.828C960.59 467.29 907.259 462.288 848.837 458.247C828.42 456.855 807.33 455.619 785.766 454.68C745.855 452.858 703.991 451.224 662.407 450.755C612.609 450.197 564.395 451.042 519.08 447.503C426.312 439.961 345.674 416.95 262.126 411.236C237.178 409.525 212.063 409.232 186.623 411.479" stroke="#BC2EE0" stroke-width="0.552088" stroke-miterlimit="10"/>
<path d="M2141.09 627.759C2141.33 603.015 2049.65 638.089 1912.37 530.172C1905.03 524.397 1898.02 518.38 1891 512.538C1866.57 492.376 1843.19 472.534 1818.98 456.341C1746.54 407.581 1678.82 386.116 1587.27 386.535C1529.93 386.8 1463.65 397.676 1381.96 417.723C1358.13 423.569 1334.43 430.123 1310.71 436.786C1259.32 451.229 1206.18 466.765 1155.73 472.092C1104.69 477.481 1061.31 475.079 1017.37 473.727C965.995 472.197 912.183 470.066 853.877 468.156C833.499 467.505 812.531 466.919 791.132 466.494C751.558 465.633 710.185 464.468 669.099 463.728C619.902 462.856 572.119 462.376 527.14 457.175C435.013 446.26 354.999 418.463 271.219 408.144C246.204 405.058 220.946 403.402 195.285 404.351" stroke="#BC2EE0" stroke-width="0.552088" stroke-miterlimit="10"/>
<path d="M2144.6 621.708C2144.8 601.088 2051.45 642.274 1911.34 534.583C1904 528.946 1896.99 523.094 1889.99 517.397C1865.6 497.654 1842.47 478.182 1818.79 461.884C1747.79 412.732 1682.03 387.413 1590.41 385.508C1534.08 384.338 1468.35 393.652 1386.7 412.809C1363.07 418.352 1339.59 424.602 1316.1 431.022C1265.23 444.941 1212.97 460.156 1163 466.985C1112.43 473.887 1068.28 474.417 1023.62 475.642C971.406 477.122 917.108 477.862 858.918 478.088C838.579 478.182 817.726 478.243 796.499 478.331C757.256 478.43 716.385 477.729 675.796 476.73C627.201 475.537 579.842 473.738 535.206 466.875C443.72 452.581 364.329 419.997 280.323 405.074C255.242 400.613 229.84 397.593 203.953 397.24" stroke="#BC2EE0" stroke-width="0.552088" stroke-miterlimit="10"/>
<path d="M2148.11 615.663C2148.27 599.167 2053.27 646.415 1910.29 539C1902.97 533.502 1895.94 527.815 1888.98 522.261C1864.62 502.944 1841.76 483.836 1818.6 467.428C1749.03 417.878 1685.23 388.761 1593.56 384.482C1538.22 381.898 1473.07 389.633 1391.43 407.901C1368.03 413.141 1344.75 419.087 1321.5 425.265C1271.14 438.653 1219.78 453.554 1170.27 461.879C1120.17 470.298 1075.24 473.749 1029.87 477.558C976.811 482.047 922.027 485.658 863.958 488.015C843.658 488.854 822.927 489.561 801.859 490.163C762.954 491.223 722.579 490.985 682.481 489.721C634.483 488.214 587.561 485.089 543.261 476.57C452.415 458.903 373.648 421.533 289.416 402C264.263 396.164 238.724 391.78 212.61 390.124" stroke="#BC2EE0" stroke-width="0.552088" stroke-miterlimit="10"/>
<path d="M2151.62 609.613C2151.74 597.24 2055.11 650.5 1909.25 543.406C1901.94 538.04 1894.92 532.53 1887.98 527.114C1863.65 508.216 1841.04 489.478 1818.42 472.965C1750.28 423.023 1688.41 390.152 1596.71 383.444C1542.35 379.469 1477.78 385.614 1396.17 402.977C1372.97 407.913 1349.92 413.549 1326.9 419.49C1277.05 432.354 1226.58 446.934 1177.54 456.756C1127.92 466.688 1082.22 473.07 1036.12 479.458C982.221 486.955 926.957 493.437 869.01 497.931C848.748 499.51 828.133 500.868 807.237 501.988C768.668 504.015 728.785 504.241 689.184 502.712C641.787 500.884 595.295 496.44 551.327 486.26C461.121 465.219 382.979 423.062 298.515 398.925C273.295 391.714 247.612 385.962 221.278 383.008" stroke="#BC2EE0" stroke-width="0.552088" stroke-miterlimit="10"/>
<path d="M2155.12 603.561C2155.2 595.313 2056.98 654.536 1908.21 547.817C1900.91 542.583 1893.88 537.244 1886.97 531.972C1862.69 513.499 1840.33 495.131 1818.23 478.502C1751.53 428.168 1691.56 391.593 1599.85 382.411C1546.46 377.067 1482.49 381.611 1400.91 398.063C1377.93 402.701 1355.08 408.028 1332.3 413.726C1282.97 426.059 1233.39 440.325 1184.82 451.643C1135.67 463.088 1089.18 472.402 1042.37 481.368C987.632 491.874 931.882 501.226 874.05 507.851C853.827 510.176 833.334 512.18 812.603 513.814C774.365 516.801 734.985 517.491 695.88 515.702C649.085 513.56 603.019 507.791 559.393 495.948C469.828 471.529 392.309 424.591 307.619 395.844C282.328 387.259 256.506 380.142 229.945 375.891" stroke="#BC2EE0" stroke-width="0.552088" stroke-miterlimit="10"/>
<path d="M2158.63 597.516C2158.67 593.392 2058.87 658.522 1907.16 552.234C1899.87 547.132 1892.84 541.97 1885.96 536.836C1861.71 518.783 1839.6 500.785 1818.04 484.051C1752.77 433.325 1694.67 393.094 1602.98 381.384C1550.54 374.688 1487.21 377.719 1405.63 393.149C1382.87 397.516 1360.23 402.507 1337.69 407.962C1288.87 419.771 1240.18 433.717 1192.08 446.531C1143.4 459.494 1096.14 471.734 1048.61 483.278C993.025 496.793 936.795 509.016 879.08 517.778C858.896 520.848 838.518 523.498 817.958 525.645C780.057 529.593 741.174 530.746 702.561 528.693C656.367 526.236 610.732 519.147 567.443 505.643C478.518 477.851 401.623 426.126 316.706 392.774C291.349 382.814 265.384 374.334 238.602 368.78" stroke="#BC2EE0" stroke-width="0.552088" stroke-miterlimit="10"/>
<path d="M2162.14 591.465C2162.14 591.465 2060.79 662.453 1906.12 556.645C1751.45 450.837 1698.2 336.676 1410.38 388.236C1211.48 423.868 1023.85 511.263 823.336 537.471C740.837 548.253 654.374 543.174 575.514 515.332C487.23 484.161 410.959 427.655 325.81 389.693C300.381 378.359 274.284 368.515 247.27 361.658" stroke="#BC2EE0" stroke-width="0.552088" stroke-miterlimit="10"/>
</svg>
